TITLE ""
FILE "2Q_j_1663-1676.mp3" MP3
  TRACK 01 AUDIO
    TITLE "2Q_j_1663-1676_01"
    INDEX 01 00:00:00
  TRACK 02 AUDIO
    TITLE "2Q_j_1663-1676_02"
    INDEX 01 00:00:16
  TRACK 03 AUDIO
    TITLE "2Q_j_1663-1676_03"
    INDEX 01 00:01:53
  TRACK 04 AUDIO
    TITLE "2Q_j_1663-1676_04"
    INDEX 01 00:02:29
  TRACK 05 AUDIO
    TITLE "2Q_j_1663-1676_05"
    INDEX 01 00:04:30
  TRACK 06 AUDIO
    TITLE "2Q_j_1663-1676_06"
    INDEX 01 00:05:00
  TRACK 07 AUDIO
    TITLE "2Q_j_1663-1676_07"
    INDEX 01 00:09:68
  TRACK 08 AUDIO
    TITLE "2Q_j_1663-1676_08"
    INDEX 01 00:10:38
  TRACK 09 AUDIO
    TITLE "2Q_j_1663-1676_09"
    INDEX 01 00:11:63
  TRACK 10 AUDIO
    TITLE "2Q_j_1663-1676_10"
    INDEX 01 00:12:33
  TRACK 11 AUDIO
    TITLE "2Q_j_1663-1676_11"
    INDEX 01 00:15:51
  TRACK 12 AUDIO
    TITLE "2Q_j_1663-1676_12"
    INDEX 01 00:16:19
  TRACK 13 AUDIO
    TITLE "2Q_j_1663-1676_13"
    INDEX 01 00:19:57
  TRACK 14 AUDIO
    TITLE "2Q_j_1663-1676_14"
    INDEX 01 00:20:27
  TRACK 15 AUDIO
    TITLE "2Q_j_1663-1676_15"
    INDEX 01 00:21:44
  TRACK 16 AUDIO
    TITLE "2Q_j_1663-1676_16"
    INDEX 01 00:22:18
  TRACK 17 AUDIO
    TITLE "2Q_j_1663-1676_17"
    INDEX 01 00:24:50
  TRACK 18 AUDIO
    TITLE "2Q_j_1663-1676_18"
    INDEX 01 00:25:20
  TRACK 19 AUDIO
    TITLE "2Q_j_1663-1676_19"
    INDEX 01 00:30:43
  TRACK 20 AUDIO
    TITLE "2Q_j_1663-1676_20"
    INDEX 01 00:31:17
  TRACK 21 AUDIO
    TITLE "2Q_j_1663-1676_21"
    INDEX 01 00:33:29
  TRACK 22 AUDIO
    TITLE "2Q_j_1663-1676_22"
    INDEX 01 00:34:01
  TRACK 23 AUDIO
    TITLE "2Q_j_1663-1676_23"
    INDEX 01 00:36:53
  TRACK 24 AUDIO
    TITLE "2Q_j_1663-1676_24"
    INDEX 01 00:37:21
  TRACK 25 AUDIO
    TITLE "2Q_j_1663-1676_25"
    INDEX 01 00:42:64
  TRACK 26 AUDIO
    TITLE "2Q_j_1663-1676_26"
    INDEX 01 00:43:34
  TRACK 27 AUDIO
    TITLE "2Q_j_1663-1676_27"
    INDEX 01 00:44:72
  TRACK 28 AUDIO
    TITLE "2Q_j_1663-1676_28"
    INDEX 01 00:45:44
  TRACK 29 AUDIO
    TITLE "2Q_j_1663-1676_29"
    INDEX 01 00:49:32
  TRACK 30 AUDIO
    TITLE "2Q_j_1663-1676_30"
    INDEX 01 00:50:02
  TRACK 31 AUDIO
    TITLE "2Q_j_1663-1676_31"
    INDEX 01 00:54:41
  TRACK 32 AUDIO
    TITLE "2Q_j_1663-1676_32"
    INDEX 01 00:55:15
  TRACK 33 AUDIO
    TITLE "2Q_j_1663-1676_33"
    INDEX 01 00:56:34
  TRACK 34 AUDIO
    TITLE "2Q_j_1663-1676_34"
    INDEX 01 00:57:06
  TRACK 35 AUDIO
    TITLE "2Q_j_1663-1676_35"
    INDEX 01 01:01:18
  TRACK 36 AUDIO
    TITLE "2Q_j_1663-1676_36"
    INDEX 01 01:01:61
  TRACK 37 AUDIO
    TITLE "2Q_j_1663-1676_37"
    INDEX 01 01:04:42
  TRACK 38 AUDIO
    TITLE "2Q_j_1663-1676_38"
    INDEX 01 01:05:14
  TRACK 39 AUDIO
    TITLE "2Q_j_1663-1676_39"
    INDEX 01 01:06:50
  TRACK 40 AUDIO
    TITLE "2Q_j_1663-1676_40"
    INDEX 01 01:07:20
  TRACK 41 AUDIO
    TITLE "2Q_j_1663-1676_41"
    INDEX 01 01:09:10
  TRACK 42 AUDIO
    TITLE "2Q_j_1663-1676_42"
    INDEX 01 01:09:57
  TRACK 43 AUDIO
    TITLE "2Q_j_1663-1676_43"
    INDEX 01 01:13:03
  TRACK 44 AUDIO
    TITLE "2Q_j_1663-1676_44"
    INDEX 01 01:13:48
  TRACK 45 AUDIO
    TITLE "2Q_j_1663-1676_45"
    INDEX 01 01:14:73
  TRACK 46 AUDIO
    TITLE "2Q_j_1663-1676_46"
    INDEX 01 01:15:45
  TRACK 47 AUDIO
    TITLE "2Q_j_1663-1676_47"
    INDEX 01 01:20:60
  TRACK 48 AUDIO
    TITLE "2Q_j_1663-1676_48"
    INDEX 01 01:21:30
  TRACK 49 AUDIO
    TITLE "2Q_j_1663-1676_49"
    INDEX 01 01:25:07
  TRACK 50 AUDIO
    TITLE "2Q_j_1663-1676_50"
    INDEX 01 01:25:58
  TRACK 51 AUDIO
    TITLE "2Q_j_1663-1676_51"
    INDEX 01 01:27:00
  TRACK 52 AUDIO
    TITLE "2Q_j_1663-1676_52"
    INDEX 01 01:27:45
  TRACK 53 AUDIO
    TITLE "2Q_j_1663-1676_53"
    INDEX 01 01:29:36
  TRACK 54 AUDIO
    TITLE "2Q_j_1663-1676_54"
    INDEX 01 01:30:04
  TRACK 55 AUDIO
    TITLE "2Q_j_1663-1676_55"
    INDEX 01 01:33:61
  TRACK 56 AUDIO
    TITLE "2Q_j_1663-1676_56"
    INDEX 01 01:34:39
  TRACK 57 AUDIO
    TITLE "2Q_j_1663-1676_57"
    INDEX 01 01:36:65
  TRACK 58 AUDIO
    TITLE "2Q_j_1663-1676_58"
    INDEX 01 01:37:35
  TRACK 59 AUDIO
    TITLE "2Q_j_1663-1676_59"
    INDEX 01 01:39:30
  TRACK 60 AUDIO
    TITLE "2Q_j_1663-1676_60"
    INDEX 01 01:40:00
  TRACK 61 AUDIO
    TITLE "2Q_j_1663-1676_61"
    INDEX 01 01:43:10
  TRACK 62 AUDIO
    TITLE "2Q_j_1663-1676_62"
    INDEX 01 01:43:57
  TRACK 63 AUDIO
    TITLE "2Q_j_1663-1676_63"
    INDEX 01 01:44:71
  TRACK 64 AUDIO
    TITLE "2Q_j_1663-1676_64"
    INDEX 01 01:45:41
  TRACK 65 AUDIO
    TITLE "2Q_j_1663-1676_65"
    INDEX 01 01:47:30
  TRACK 66 AUDIO
    TITLE "2Q_j_1663-1676_66"
    INDEX 01 01:48:00
  TRACK 67 AUDIO
    TITLE "2Q_j_1663-1676_67"
    INDEX 01 01:51:18
  TRACK 68 AUDIO
    TITLE "2Q_j_1663-1676_68"
    INDEX 01 01:51:71
  TRACK 69 AUDIO
    TITLE "2Q_j_1663-1676_69"
    INDEX 01 01:53:21
  TRACK 70 AUDIO
    TITLE "2Q_j_1663-1676_70"
    INDEX 01 01:53:70
  TRACK 71 AUDIO
    TITLE "2Q_j_1663-1676_71"
    INDEX 01 01:55:61
  TRACK 72 AUDIO
    TITLE "2Q_j_1663-1676_72"
    INDEX 01 01:56:31
  TRACK 73 AUDIO
    TITLE "2Q_j_1663-1676_73"
    INDEX 01 01:59:47
  TRACK 74 AUDIO
    TITLE "2Q_j_1663-1676_74"
    INDEX 01 02:00:17
  TRACK 75 AUDIO
    TITLE "2Q_j_1663-1676_75"
    INDEX 01 02:02:33
  TRACK 76 AUDIO
    TITLE "2Q_j_1663-1676_76"
    INDEX 01 02:03:11
  TRACK 77 AUDIO
    TITLE "2Q_j_1663-1676_77"
    INDEX 01 02:05:41
  TRACK 78 AUDIO
    TITLE "2Q_j_1663-1676_78"
    INDEX 01 02:06:09
  TRACK 79 AUDIO
    TITLE "2Q_j_1663-1676_79"
    INDEX 01 02:09:63
  TRACK 80 AUDIO
    TITLE "2Q_j_1663-1676_80"
    INDEX 01 02:10:35
  TRACK 81 AUDIO
    TITLE "2Q_j_1663-1676_81"
    INDEX 01 02:11:65
  TRACK 82 AUDIO
    TITLE "2Q_j_1663-1676_82"
    INDEX 01 02:12:36
  TRACK 83 AUDIO
    TITLE "2Q_j_1663-1676_83"
    INDEX 01 02:14:64
  TRACK 84 AUDIO
    TITLE "2Q_j_1663-1676_84"
    INDEX 01 02:15:34
  TRACK 85 AUDIO
    TITLE "2Q_j_1663-1676_85"
    INDEX 01 02:19:71
